<svg width="9" height="18" viewBox="0 0 9 18" fill="none" xmlns="http://www.w3.org/2000/svg">
<path d="M4.82991 0.00112481L0 0.00337486V18H4.59526C5.51698 18 6.33787 17.8087 7.06012 17.4308C7.78229 17.0518 8.30728 16.3556 8.63837 15.3388C8.82652 14.7876 8.93537 13.9598 8.96034 12.8552C8.98642 11.7529 9 10.4594 9 8.97471C9 7.48998 8.98532 6.17058 8.95916 5.0076C8.93318 3.84111 8.84357 2.98294 8.68714 2.43179C8.44329 1.55221 8.00909 0.927954 7.38556 0.557892C6.75966 0.186714 5.90705 0 4.82763 0L4.82991 0.00112481ZM3.52268 3.39124H4.18249C4.73465 3.39124 5.09527 3.52621 5.25963 3.79053C5.42636 4.05828 5.50905 4.44294 5.50905 4.94235V13.0633C5.50905 13.5807 5.42636 13.9688 5.25963 14.2275C5.09527 14.4861 4.73465 14.6156 4.17912 14.6156H3.5193L3.5215 3.39236L3.52268 3.39124Z" fill="#2E2E2E" fill-opacity="0.32"/>
</svg>
