<svg width="34" height="31" viewBox="0 0 34 31" fill="none" xmlns="http://www.w3.org/2000/svg">
<path d="M12.8334 30.5H26.3334C27.5784 30.5 28.6434 29.75 29.0934 28.67L33.6234 18.095C33.7584 17.75 33.8334 17.39 33.8334 17V14C33.8334 12.35 32.4834 11 30.8334 11H21.3684L22.7934 4.145L22.8384 3.665C22.8384 3.05 22.5834 2.48 22.1784 2.075L20.5884 0.5L10.7034 10.385C10.1634 10.925 9.83337 11.675 9.83337 12.5V27.5C9.83337 29.15 11.1834 30.5 12.8334 30.5ZM12.8334 12.5L19.3434 5.99L17.3334 14H30.8334V17L26.3334 27.5H12.8334V12.5ZM0.833374 12.5H6.83337V30.5H0.833374V12.5Z" fill="#263F63"/>
</svg>
