<svg width="22" height="29" viewBox="0 0 22 29" fill="none" xmlns="http://www.w3.org/2000/svg">
<path d="M10.6667 18C13.1567 18 15.1667 15.99 15.1667 13.5V4.5C15.1667 2.01 13.1567 0 10.6667 0C8.17675 0 6.16675 2.01 6.16675 4.5V13.5C6.16675 15.99 8.17675 18 10.6667 18Z" fill="#263F63"/>
<path d="M18.1666 13.5C18.1666 17.64 14.8066 21 10.6666 21C6.52663 21 3.16663 17.64 3.16663 13.5H0.166626C0.166626 18.795 4.08163 23.145 9.16663 23.88V28.5H12.1666V23.88C17.2516 23.145 21.1666 18.795 21.1666 13.5H18.1666Z" fill="#263F63"/>
</svg>
