<svg width="31" height="28" viewBox="0 0 31 28" fill="none" xmlns="http://www.w3.org/2000/svg">
<path d="M29.1665 14.33C29.1665 6.095 22.7765 0.5 15.6665 0.5C8.6315 0.5 2.1665 5.975 2.1665 14.42C1.2665 14.93 0.666504 15.89 0.666504 17V20C0.666504 21.65 2.0165 23 3.6665 23H5.1665V13.85C5.1665 8.045 9.8615 3.35 15.6665 3.35C21.4715 3.35 26.1665 8.045 26.1665 13.85V24.5H14.1665V27.5H26.1665C27.8165 27.5 29.1665 26.15 29.1665 24.5V22.67C30.0515 22.205 30.6665 21.29 30.6665 20.21V16.76C30.6665 15.71 30.0515 14.795 29.1665 14.33Z" fill="#263F63"/>
<path d="M11.1665 17C11.9949 17 12.6665 16.3284 12.6665 15.5C12.6665 14.6716 11.9949 14 11.1665 14C10.3381 14 9.6665 14.6716 9.6665 15.5C9.6665 16.3284 10.3381 17 11.1665 17Z" fill="#263F63"/>
<path d="M20.1665 17C20.9949 17 21.6665 16.3284 21.6665 15.5C21.6665 14.6716 20.9949 14 20.1665 14C19.3381 14 18.6665 14.6716 18.6665 15.5C18.6665 16.3284 19.3381 17 20.1665 17Z" fill="#263F63"/>
<path d="M24.6666 12.545C23.9466 8.27 20.2266 5 15.7416 5C11.1966 5 6.30658 8.765 6.69658 14.675C10.4016 13.16 13.1916 9.86 13.9866 5.84C15.9516 9.785 19.9866 12.5 24.6666 12.545Z" fill="#263F63"/>
</svg>
