<svg width="20" height="20" viewBox="0 0 20 20" fill="none" xmlns="http://www.w3.org/2000/svg">
<path fill-rule="evenodd" clip-rule="evenodd" d="M19.94 14.1229C19.8911 15.1874 19.7221 15.914 19.4753 16.5507C19.224 17.2179 18.8304 17.8223 18.3218 18.3218C17.8221 18.8302 17.2178 19.2238 16.5507 19.4753C15.914 19.7221 15.1874 19.8911 14.1229 19.94C13.0565 19.989 12.7156 20 10 20C7.2844 20 6.9435 19.989 5.8771 19.94C4.8126 19.8911 4.086 19.7221 3.44928 19.4753C2.78224 19.2238 2.17789 18.8302 1.67816 18.3218C1.16956 17.8223 0.77595 17.2179 0.52474 16.5507C0.27786 15.914 0.10895 15.1874 0.0599699 14.1229C0.0119899 13.0565 0 12.7156 0 10C0 7.2844 0.0119899 6.9435 0.0599699 5.8771C0.10895 4.8126 0.27786 4.086 0.52474 3.44928C0.77595 2.78211 1.16956 2.17771 1.67816 1.67816C2.17789 1.16978 2.78224 0.77621 3.44928 0.52474C4.086 0.27786 4.8126 0.10895 5.8771 0.0599699C6.9435 0.0119899 7.2844 0 10 0C12.7156 0 13.0565 0.0119899 14.1229 0.0599699C15.1874 0.10895 15.914 0.27786 16.5507 0.52474C17.2178 0.77621 17.8221 1.16978 18.3218 1.67816C18.8304 2.17771 19.224 2.78211 19.4753 3.44928C19.7221 4.086 19.8911 4.8126 19.94 5.8771C19.988 6.9435 20 7.2844 20 10C20 12.7156 19.988 13.0565 19.94 14.1229ZM18.1399 5.959C18.095 4.9845 17.932 4.4548 17.7951 4.1029C17.6354 3.66824 17.3798 3.27505 17.0475 2.95252C16.7252 2.62039 16.3323 2.36489 15.8981 2.2049C15.5452 2.06797 15.0155 1.90505 14.041 1.86007C12.9865 1.81209 12.6697 1.8021 10 1.8021C7.3303 1.8021 7.0135 1.81209 5.959 1.86007C4.9845 1.90505 4.4548 2.06797 4.1019 2.2049C3.63518 2.38581 3.30235 2.6027 2.95252 2.95252C2.6027 3.30235 2.38581 3.63518 2.2049 4.1029C2.06797 4.4548 1.90505 4.9845 1.86007 5.959C1.81209 7.0135 1.8021 7.3303 1.8021 10C1.8021 12.6697 1.81209 12.9865 1.86007 14.041C1.90505 15.0155 2.06797 15.5452 2.2049 15.8981C2.38581 16.3648 2.6027 16.6977 2.95252 17.0475C3.30235 17.3973 3.63518 17.6142 4.1019 17.7951C4.4548 17.932 4.9845 18.095 5.959 18.1399C7.0135 18.1879 7.3293 18.1979 10 18.1979C12.6707 18.1979 12.9865 18.1879 14.041 18.1399C15.0155 18.095 15.5452 17.932 15.8981 17.7951C16.3648 17.6142 16.6977 17.3973 17.0475 17.0475C17.3973 16.6977 17.6142 16.3648 17.7951 15.8981C17.932 15.5452 18.095 15.0155 18.1399 14.041C18.1879 12.9865 18.1979 12.6697 18.1979 10C18.1979 7.3303 18.1879 7.0135 18.1399 5.959ZM15.3383 5.8621C15.0198 5.8621 14.7144 5.7355 14.4892 5.5103C14.264 5.2851 14.1374 4.9797 14.1374 4.6612C14.1374 4.3427 14.264 4.0372 14.4892 3.81201C14.7144 3.58679 15.0198 3.46027 15.3383 3.46027C15.6568 3.46027 15.9623 3.58679 16.1875 3.81201C16.4127 4.0372 16.5392 4.3427 16.5392 4.6612C16.5392 4.9797 16.4127 5.2851 16.1875 5.5103C15.9623 5.7355 15.6568 5.8621 15.3383 5.8621ZM10 15.1354C8.6377 15.1352 7.3314 14.5938 6.3683 13.6303C5.4052 12.6668 4.8643 11.3603 4.8646 9.998C4.8648 8.6357 5.4062 7.3294 6.3697 6.3663C7.3332 5.4032 8.6397 4.8623 10.002 4.8626C11.3643 4.8628 12.6706 5.4042 13.6337 6.3677C14.5968 7.3312 15.1377 8.6377 15.1374 10C15.1372 11.3623 14.5958 12.6686 13.6323 13.6317C12.6688 14.5948 11.3623 15.1357 10 15.1354ZM10 6.6667C9.1159 6.6667 8.2681 7.0179 7.643 7.643C7.0179 8.2681 6.6667 9.1159 6.6667 10C6.6667 10.8841 7.0179 11.7319 7.643 12.357C8.2681 12.9821 9.1159 13.3333 10 13.3333C10.8841 13.3333 11.7319 12.9821 12.357 12.357C12.9821 11.7319 13.3333 10.8841 13.3333 10C13.3333 9.1159 12.9821 8.2681 12.357 7.643C11.7319 7.0179 10.8841 6.6667 10 6.6667Z" fill="#2E2E2E" fill-opacity="0.32"/>
</svg>
