<svg width="20" height="20" viewBox="0 0 20 20" fill="none" xmlns="http://www.w3.org/2000/svg">
<path fill-rule="evenodd" clip-rule="evenodd" d="M16.4813 16.4818V9.16699L18.3332 7.08366V16.4818C18.3332 17.5003 17.4998 18.3337 16.4813 18.3337H3.51836C2.49984 18.3337 1.6665 17.5003 1.6665 16.4818V3.51884C1.6665 2.50033 2.49984 1.66699 3.51836 1.66699H12.0832L9.99984 3.51884H3.51836V16.4818H16.4813Z" fill="#2E2E2E" fill-opacity="0.32"/>
<path d="M15.4165 3.65814L16.1832 4.4248L9.09984 11.5085H8.33317V10.7419L15.4165 3.65814ZM16.8307 2.71405C16.0497 1.93299 14.7833 1.933 14.0023 2.71408L6.6665 10.0502V13.1752H9.7915L17.1273 5.83902C17.9084 5.05797 17.9084 3.79166 17.1273 3.01062L16.8307 2.71405Z" fill="#2E2E2E" fill-opacity="0.32"/>
</svg>
