<svg width="16" height="18" viewBox="0 0 16 18" fill="none" xmlns="http://www.w3.org/2000/svg">
<path d="M16 7.71669V4.5747C14.5222 4.5747 13.3944 4.18194 12.6666 3.41856C11.9196 2.54735 11.5012 1.44406 11.4833 0.29871V0.0719098L8.50001 0C8.50001 0 8.50001 0.127224 8.50001 0.29871V12.7615C8.39764 13.3183 8.12616 13.8304 7.72223 14.2287C7.31838 14.6271 6.80146 14.8924 6.24124 14.989C5.68112 15.0854 5.10475 15.0085 4.58986 14.7685C4.07497 14.5286 3.64648 14.137 3.36217 13.6469C3.07786 13.1567 2.9514 12.5914 2.99995 12.0275C3.04851 11.4636 3.26968 10.928 3.63355 10.4931C3.99743 10.0582 4.48657 9.74501 5.03497 9.5957C5.58327 9.44648 6.16444 9.46826 6.70001 9.65825V6.61581C6.38773 6.56487 6.07195 6.53904 5.75552 6.53841C4.61718 6.53841 3.50442 6.87447 2.55789 7.5042C1.61145 8.13393 0.873742 9.02897 0.438115 10.0761C0.00248763 11.1233 -0.111485 12.2755 0.110598 13.3872C0.332672 14.4989 0.880831 15.52 1.68576 16.3215C2.49069 17.1229 3.51623 17.6687 4.63269 17.8899C5.74915 18.111 6.90641 17.9976 7.95807 17.5638C9.00973 17.13 9.90862 16.3955 10.5411 15.4531C11.1735 14.5106 11.5111 13.4026 11.5111 12.2692C11.5105 12.0343 11.4956 11.7998 11.4666 11.5667V6.5052C12.8232 7.34877 14.4015 7.77051 16 7.71669Z" fill="#2E2E2E" fill-opacity="0.32"/>
</svg>
