<svg width="29" height="30" viewBox="0 0 29 30" fill="none" xmlns="http://www.w3.org/2000/svg">
<path d="M28.5834 10.5L25.2084 4.5H20.2434L17.7084 0H10.9584L8.42344 4.5H3.45843L0.0834351 10.5L2.61843 15L0.0834351 19.5L3.45843 25.5H8.42344L10.9584 30H17.7084L20.2434 25.5H25.2084L28.5834 19.5L26.0484 15L28.5834 10.5ZM25.1484 10.5L23.4684 13.5H20.2584L18.5784 10.5L20.2584 7.5H23.4684L25.1484 10.5ZM12.7434 18L11.0634 15L12.7434 12H15.9234L17.6034 15L15.9234 18H12.7434ZM15.9534 3L17.6334 5.97L15.9234 9H12.7434L11.0334 5.97L12.7134 3H15.9534ZM5.21343 7.5H8.42344L10.1034 10.5L8.42344 13.5H5.21343L3.51843 10.5L5.21343 7.5ZM3.51843 19.5L5.19843 16.5H8.40843L10.0884 19.5L8.40843 22.5H5.21343L3.51843 19.5ZM12.7134 27L11.0334 24.03L12.7434 21H15.9234L17.6184 24.03L15.9534 27H12.7134ZM23.4534 22.5H20.2434L18.5634 19.5L20.2434 16.5H23.4534L25.1334 19.5L23.4534 22.5Z" fill="#263F63"/>
</svg>
